<svg width="20" height="20" viewBox="0 0 20 20" fill="none" xmlns="http://www.w3.org/2000/svg">
<g id="vuesax/outline/eye-slash">
<g id="vuesax/outline/eye-slash_2">
<g id="eye-slash">
<path id="Vector" d="M7.89172 12.7342C7.73339 12.7342 7.57506 12.6759 7.45006 12.5509C6.76672 11.8676 6.39172 10.9592 6.39172 10.0009C6.39172 8.00924 8.00839 6.39258 10.0001 6.39258C10.9584 6.39258 11.8667 6.76758 12.5501 7.45091C12.6667 7.56758 12.7334 7.72591 12.7334 7.89258C12.7334 8.05925 12.6667 8.21758 12.5501 8.33424L8.33339 12.5509C8.20839 12.6759 8.05006 12.7342 7.89172 12.7342ZM10.0001 7.64258C8.70006 7.64258 7.64172 8.70091 7.64172 10.0009C7.64172 10.4176 7.75006 10.8176 7.95006 11.1676L11.1667 7.95091C10.8167 7.75091 10.4167 7.64258 10.0001 7.64258Z" fill="#292D32"/>
<path id="Vector_2" d="M4.66666 15.4241C4.52499 15.4241 4.37499 15.3741 4.25833 15.2741C3.36666 14.5158 2.56666 13.5824 1.88333 12.4991C0.999992 11.1241 0.999992 8.88242 1.88333 7.49909C3.91666 4.31576 6.87499 2.48242 9.99999 2.48242C11.8333 2.48242 13.6417 3.11576 15.225 4.30742C15.5 4.51576 15.5583 4.90742 15.35 5.18242C15.1417 5.45742 14.75 5.51576 14.475 5.30742C13.1083 4.27409 11.5583 3.73242 9.99999 3.73242C7.30833 3.73242 4.73333 5.34909 2.93333 8.17409C2.30833 9.14909 2.30833 10.8491 2.93333 11.8241C3.55833 12.7991 4.27499 13.6408 5.06666 14.3241C5.32499 14.5491 5.35833 14.9408 5.13333 15.2074C5.01666 15.3491 4.84166 15.4241 4.66666 15.4241Z" fill="#292D32"/>
<path id="Vector_3" d="M10 17.5176C8.89168 17.5176 7.80834 17.2926 6.76668 16.8509C6.45001 16.7176 6.30001 16.3509 6.43334 16.0342C6.56668 15.7176 6.93334 15.5676 7.25001 15.7009C8.13334 16.0759 9.05834 16.2676 9.99168 16.2676C12.6833 16.2676 15.2583 14.6509 17.0583 11.8259C17.6833 10.8509 17.6833 9.15089 17.0583 8.17589C16.8 7.76756 16.5167 7.37589 16.2167 7.00923C16 6.74256 16.0417 6.35089 16.3083 6.12589C16.575 5.90923 16.9667 5.94256 17.1917 6.21756C17.5167 6.61756 17.8333 7.05089 18.1167 7.50089C19 8.87589 19 11.1176 18.1167 12.5009C16.0833 15.6842 13.125 17.5176 10 17.5176Z" fill="#292D32"/>
<path id="Vector_4" d="M10.575 13.5576C10.2834 13.5576 10.0167 13.3493 9.95836 13.0493C9.89169 12.7076 10.1167 12.3826 10.4584 12.3243C11.375 12.1576 12.1417 11.391 12.3084 10.4743C12.375 10.1326 12.7 9.91598 13.0417 9.97431C13.3834 10.041 13.6084 10.366 13.5417 10.7076C13.275 12.1493 12.125 13.291 10.6917 13.5576C10.65 13.5493 10.6167 13.5576 10.575 13.5576Z" fill="#292D32"/>
<path id="Vector_5" d="M1.66662 18.9592C1.50828 18.9592 1.34995 18.9009 1.22495 18.7759C0.983285 18.5342 0.983285 18.1342 1.22495 17.8926L7.44995 11.6676C7.69162 11.4259 8.09162 11.4259 8.33329 11.6676C8.57495 11.9092 8.57495 12.3092 8.33329 12.5509L2.10828 18.7759C1.98328 18.9009 1.82495 18.9592 1.66662 18.9592Z" fill="#292D32"/>
<path id="Vector_6" d="M12.1084 8.51589C11.9501 8.51589 11.7917 8.45755 11.6667 8.33255C11.4251 8.09089 11.4251 7.69089 11.6667 7.44922L17.8917 1.22422C18.1334 0.982552 18.5334 0.982552 18.7751 1.22422C19.0167 1.46589 19.0167 1.86589 18.7751 2.10755L12.5501 8.33255C12.4251 8.45755 12.2667 8.51589 12.1084 8.51589Z" fill="#292D32"/>
</g>
</g>
</g>
</svg>
