<svg width="20" height="21" viewBox="0 0 20 21" fill="none" xmlns="http://www.w3.org/2000/svg">
<path d="M14.825 19.4581H5.17499C2.89166 19.4581 1.04166 17.5998 1.04166 15.3165V9.14148C1.04166 8.00815 1.74166 6.58315 2.64166 5.88315L7.13332 2.38315C8.48332 1.33315 10.6417 1.28315 12.0417 2.26648L17.1917 5.87481C18.1833 6.56648 18.9583 8.04982 18.9583 9.25815V15.3248C18.9583 17.5998 17.1083 19.4581 14.825 19.4581ZM7.89999 3.36648L3.40832 6.86648C2.81666 7.33315 2.29166 8.39148 2.29166 9.14148V15.3165C2.29166 16.9081 3.58332 18.2081 5.17499 18.2081H14.825C16.4167 18.2081 17.7083 16.9165 17.7083 15.3248V9.25815C17.7083 8.45815 17.1333 7.34981 16.475 6.89982L11.325 3.29148C10.375 2.62482 8.80832 2.65815 7.89999 3.36648Z" fill="#B1B2B2"/>
<path d="M10 16.125C9.65833 16.125 9.375 15.8417 9.375 15.5V13C9.375 12.6583 9.65833 12.375 10 12.375C10.3417 12.375 10.625 12.6583 10.625 13V15.5C10.625 15.8417 10.3417 16.125 10 16.125Z" fill="#B1B2B2"/>
</svg>
