<svg width="21" height="21" viewBox="0 0 21 21" fill="none" xmlns="http://www.w3.org/2000/svg">
<path d="M13.9917 2.44189H7.00835C3.97502 2.44189 2.16669 4.25856 2.16669 7.29189V14.2669C2.16669 17.3002 3.97502 19.1086 7.00835 19.1086H13.9834C17.0167 19.1086 18.825 17.3002 18.825 14.2669V7.29189C18.8334 4.25856 17.025 2.44189 13.9917 2.44189ZM10.1417 14.7669C10.1417 15.0169 10.0167 15.2419 9.80002 15.3752C9.68335 15.4502 9.55835 15.4836 9.42502 15.4836C9.31669 15.4836 9.20835 15.4586 9.10002 15.4086L6.18335 13.9502C5.76669 13.7336 5.50002 13.3086 5.50002 12.8336V10.0752C5.50002 9.82523 5.62502 9.60023 5.84169 9.46689C6.05835 9.33356 6.31669 9.32523 6.54169 9.43356L9.45835 10.8919C9.88335 11.1086 10.15 11.5336 10.15 12.0086V14.7669H10.1417ZM9.96669 10.3086L6.83335 8.61689C6.60835 8.49189 6.46669 8.25023 6.46669 7.97523C6.46669 7.70856 6.60835 7.45856 6.83335 7.33356L9.96669 5.64189C10.3 5.46689 10.6917 5.46689 11.025 5.64189L14.1584 7.33356C14.3834 7.45856 14.525 7.70023 14.525 7.97523C14.525 8.25023 14.3834 8.49189 14.1584 8.61689L11.025 10.3086C10.8584 10.4002 10.675 10.4419 10.4917 10.4419C10.3084 10.4419 10.1334 10.4002 9.96669 10.3086ZM15.5 12.8336C15.5 13.3086 15.2334 13.7419 14.8084 13.9502L11.8917 15.4086C11.7917 15.4586 11.6834 15.4836 11.5667 15.4836C11.4334 15.4836 11.3084 15.4502 11.1917 15.3752C10.975 15.2419 10.85 15.0169 10.85 14.7669V12.0086C10.85 11.5336 11.1167 11.1002 11.5417 10.8919L14.4584 9.43356C14.6834 9.32523 14.9417 9.33356 15.1584 9.46689C15.375 9.60023 15.5 9.82523 15.5 10.0752V12.8336Z" fill="#07427C"/>
</svg>
